<svg width="24" height="24" viewBox="0 0 24 24" fill="none" xmlns="http://www.w3.org/2000/svg">
<path d="M20.7454 3.25781C19.6203 2.13316 18.0945 1.50137 16.5037 1.50137C14.9128 1.50137 13.3871 2.13316 12.262 3.25781L5.6901 9.75C5.55038 9.8889 5.43958 10.0541 5.36411 10.2361C5.28864 10.4181 5.24999 10.6133 5.25042 10.8103V17.6897L2.46979 20.4694C2.40011 20.539 2.34483 20.6218 2.30712 20.7128C2.26941 20.8039 2.25 20.9014 2.25 21C2.25 21.0985 2.26941 21.1961 2.30712 21.2872C2.34483 21.3782 2.40011 21.4609 2.46979 21.5306C2.61052 21.6713 2.80139 21.7504 3.00042 21.7504C3.09896 21.7504 3.19654 21.731 3.28759 21.6933C3.37863 21.6556 3.46136 21.6003 3.53104 21.5306L6.31167 18.75H13.191C13.3878 18.7503 13.5827 18.7117 13.7645 18.6364C13.9464 18.5611 14.1115 18.4506 14.2504 18.3112L20.7407 11.7487C21.299 11.1918 21.7421 10.5303 22.0445 9.80194C22.3469 9.07364 22.5028 8.29285 22.5033 7.50425C22.5037 6.71565 22.3487 5.93469 22.047 5.20605C21.7454 4.47741 21.3031 3.81537 20.7454 3.25781ZM13.3195 4.31812C14.148 3.48926 15.2672 3.0163 16.439 2.99985C17.6108 2.9834 18.7428 3.42475 19.5943 4.23003C20.4457 5.03532 20.9494 6.141 20.9982 7.31192C21.0471 8.48284 20.6372 9.62662 19.8557 10.5H14.5626L17.7829 7.28062C17.9236 7.13989 18.0027 6.94902 18.0027 6.75C18.0027 6.55097 17.9236 6.3601 17.7829 6.21937C17.6422 6.07864 17.4513 5.99958 17.2523 5.99958C17.0533 5.99958 16.8624 6.07864 16.7217 6.21937L11.2504 11.6897V6.36281L13.3195 4.31812ZM6.75042 10.8141L9.75042 7.845V13.1887L6.75042 16.1887V10.8141ZM13.191 17.25H7.81167L13.0617 12H18.381L13.191 17.25Z" fill="#14865F"/>
</svg>
